<svg width="15" height="13" viewBox="0 0 15 13" fill="none" xmlns="http://www.w3.org/2000/svg">
<path d="M8.07844 0.485131C8.49076 0.139605 9.14637 0.412947 9.14637 0.930894V12.0692C9.14637 12.5871 8.49076 12.8608 8.07844 12.5146L5.07624 9.99463C4.75733 9.72698 4.34391 9.57895 3.91539 9.57897H2.19515C1.68574 9.57897 1.19719 9.38975 0.836983 9.05292C0.476776 8.7161 0.274414 8.25926 0.274414 7.78292V5.21713C0.274414 4.22503 1.13417 3.42108 2.19515 3.42108H3.91539C4.34391 3.4211 4.75733 3.27307 5.07624 3.00542L8.07844 0.485131ZM12.1969 1.16182C12.2797 1.07912 12.3944 1.03057 12.5155 1.02685C12.6367 1.02313 12.7544 1.06454 12.843 1.14197L12.847 1.14539L12.8433 1.14197L12.8437 1.14232L12.8448 1.14334L12.847 1.14539L12.8539 1.15121L12.8759 1.17139C12.8938 1.1885 12.9187 1.21211 12.9498 1.24289C13.012 1.30447 13.0976 1.39342 13.1993 1.51042C13.4772 1.83199 13.724 2.17602 13.9369 2.53845C14.4703 3.44161 15 4.77342 15 6.50003C15 8.22663 14.4703 9.55879 13.9369 10.4616C13.724 10.824 13.4772 11.168 13.1993 11.4896C13.0969 11.6072 12.9889 11.7203 12.8755 11.8287C12.8682 11.8354 12.8609 11.8422 12.8536 11.8488L12.847 11.8547L12.8448 11.8567L12.8437 11.8577C12.8437 11.8577 13.0851 11.6316 12.843 11.8581C12.754 11.9329 12.6373 11.9722 12.5178 11.9675C12.3983 11.9628 12.2855 11.9145 12.2036 11.833C12.1218 11.7514 12.0773 11.6431 12.0798 11.5313C12.0823 11.4195 12.1315 11.313 12.217 11.2348L12.2177 11.2341L12.2188 11.2331L12.2305 11.2221C12.2419 11.2118 12.2601 11.1947 12.2843 11.1708C12.3322 11.1229 12.4036 11.049 12.4903 10.9494C12.7337 10.6673 12.95 10.3655 13.1364 10.0477C13.609 9.2485 14.0854 8.05763 14.0854 6.50003C14.0854 4.94242 13.609 3.75155 13.1364 2.95239C12.95 2.63451 12.7337 2.33273 12.4903 2.05061C12.408 1.95607 12.3214 1.86498 12.2305 1.77761C12.2266 1.77404 12.2227 1.77051 12.2188 1.767L12.2177 1.76597L12.217 1.76529C12.1289 1.68766 12.0773 1.58056 12.0736 1.46744C12.0698 1.35432 12.1141 1.24442 12.1969 1.16182ZM10.732 3.21547C10.7729 3.17431 10.822 3.14108 10.8766 3.11768C10.9312 3.09429 10.9902 3.08118 11.0503 3.07912C11.1103 3.07705 11.1702 3.08607 11.2265 3.10565C11.2828 3.12523 11.3344 3.15499 11.3784 3.19324L11.4019 3.21445C11.3645 3.18195 11.3784 3.19358 11.3784 3.19358H11.3788L11.3795 3.19426L11.3814 3.19597L11.3865 3.20042L11.4019 3.2141C11.4771 3.28465 11.5491 3.35815 11.6177 3.43442C11.7512 3.58392 11.9272 3.8015 12.1025 4.08237C12.5622 4.81556 12.8047 5.65009 12.8049 6.50003C12.8049 7.53387 12.4526 8.35629 12.1025 8.91768C11.9269 9.19855 11.7512 9.41613 11.6173 9.56529C11.5443 9.64665 11.4672 9.72485 11.3865 9.79963L11.3814 9.80408L11.3795 9.80579L11.3784 9.80647C11.3784 9.80647 11.5244 9.67032 11.3814 9.80408L11.3784 9.80682C11.2897 9.88416 11.1717 9.92538 11.0505 9.92141C10.9293 9.91743 10.8147 9.86858 10.732 9.78561C10.6493 9.70263 10.6052 9.59233 10.6094 9.47896C10.6137 9.3656 10.6659 9.25845 10.7547 9.1811L10.7554 9.18042L10.7612 9.17529L10.7923 9.14553C10.8209 9.11816 10.864 9.07437 10.9167 9.01553C11.0228 8.89716 11.1673 8.71926 11.3122 8.48697C11.6905 7.88454 11.8901 7.19863 11.8903 6.50003C11.8903 5.65229 11.6023 4.97766 11.3122 4.51308C11.1673 4.28079 11.0232 4.10289 10.9171 3.98487C10.8675 3.92953 10.8155 3.87612 10.7612 3.82476L10.755 3.81929H10.7554C10.6668 3.74207 10.6145 3.63512 10.6101 3.52191C10.6057 3.4087 10.6496 3.29849 10.732 3.21547Z" fill="#1CDE24"/>
</svg>
