<svg width="15" height="13" viewBox="0 0 15 13" fill="none" xmlns="http://www.w3.org/2000/svg">
<path d="M0.801154 0.578927C0.757575 0.543377 0.705839 0.515178 0.6489 0.495939C0.591962 0.476699 0.530935 0.466797 0.469305 0.466797C0.407675 0.466797 0.346649 0.476699 0.28971 0.495939C0.232771 0.515178 0.181035 0.543377 0.137456 0.578927C0.0938772 0.614476 0.0593085 0.65668 0.0357238 0.703128C0.012139 0.749576 -4.59179e-10 0.799358 0 0.849633C4.5918e-10 0.899908 0.012139 0.94969 0.0357238 0.996138C0.0593085 1.04259 0.0938772 1.08479 0.137456 1.12034L3.08754 3.5261H1.40673C1.0338 3.5261 0.676143 3.64695 0.412441 3.86207C0.148738 4.07718 0.000592051 4.36894 0.000592051 4.67316V8.49669C0.000592051 8.80091 0.148738 9.09267 0.412441 9.30779C0.676143 9.5229 1.0338 9.64375 1.40673 9.64375H3.8506C3.96876 9.64367 4.0826 9.67999 4.16933 9.74546L7.79998 12.4938C8.39993 12.948 9.37485 12.6009 9.37485 11.9333V8.65499L14.1988 12.5909C14.2869 12.6627 14.4062 12.7031 14.5307 12.7031C14.6552 12.7031 14.7745 12.6627 14.8625 12.5909C14.9506 12.5191 15 12.4218 15 12.3202C15 12.2187 14.9506 12.1213 14.8625 12.0495L12.458 10.0888L0.801154 0.578927Z" fill="#680000"/>
<path d="M13.0872 2.50594C14.2026 3.52354 14.8689 4.81611 14.9804 6.17815C15.0918 7.54018 14.6419 8.89352 13.7021 10.023L13.0262 9.47012C13.7981 8.48501 14.1536 7.32094 14.0385 6.15558C13.9234 4.99023 13.344 3.8876 12.3888 3.016C12.3471 2.97868 12.3148 2.93499 12.2939 2.88745C12.273 2.83991 12.2638 2.78946 12.267 2.73901C12.2701 2.68857 12.2854 2.63913 12.3121 2.59355C12.3388 2.54797 12.3763 2.50716 12.4224 2.47346C12.4686 2.43977 12.5224 2.41387 12.5809 2.39726C12.6394 2.38064 12.7013 2.37364 12.7631 2.37666C12.8249 2.37968 12.8854 2.39266 12.941 2.41485C12.9966 2.43704 13.0463 2.468 13.0872 2.50594Z" fill="#680000"/>
<path d="M11.9621 4.48244C12.4086 5.11264 12.6469 5.82661 12.6536 6.55447C12.6603 7.28233 12.4353 7.99916 12.0005 8.63479L11.305 8.06738C11.6 7.56346 11.7402 7.00849 11.7132 6.45048C11.6863 5.89246 11.4931 5.3482 11.1503 4.86479C11.119 4.82129 11.0986 4.77317 11.0903 4.72321C11.0819 4.67325 11.0857 4.62244 11.1015 4.57369C11.1173 4.52494 11.1448 4.47922 11.1823 4.43916C11.2199 4.39911 11.2668 4.3655 11.3203 4.34029C11.3738 4.31508 11.4329 4.29875 11.4942 4.29225C11.5555 4.28575 11.6178 4.28921 11.6775 4.30242C11.7371 4.31563 11.793 4.33834 11.8418 4.36923C11.8907 4.40013 11.9316 4.4386 11.9621 4.48244Z" fill="#680000"/>
<path d="M9.37474 1.23697V6.49356L4.91821 2.85738L7.79986 0.676439C8.39981 0.222204 9.37474 0.56938 9.37474 1.23697Z" fill="#680000"/>
</svg>
