<svg width="990" height="708" viewBox="0 0 990 708" fill="none" xmlns="http://www.w3.org/2000/svg">
<g filter="url(#filter0_i_390_878)">
<path d="M742.507 380.79C742.507 388.82 745.766 396.521 751.568 402.199C757.37 407.877 765.239 411.067 773.444 411.067L943.608 411.052C949.356 411.051 954.989 409.483 959.877 406.525C964.764 403.567 968.714 399.334 971.281 394.303C973.849 389.271 974.934 383.639 974.414 378.038C973.895 372.436 971.791 367.087 968.339 362.591C940.919 326.639 904.349 298.349 862.274 280.542C880.352 264.368 894.247 244.224 902.814 221.767C911.381 199.31 914.374 175.183 911.549 151.373C908.723 127.562 900.159 104.749 886.561 84.811C872.963 64.8733 854.721 48.3814 833.336 36.6931C811.951 25.0049 788.035 18.4547 763.557 17.5817C739.079 16.7087 714.739 21.538 692.542 31.6719C670.344 41.8058 650.924 56.9545 635.879 75.8707C620.834 94.787 610.596 116.93 606.007 140.476C604.82 146.592 605.589 152.917 608.208 158.59C610.827 164.263 615.17 169.008 620.644 172.179C670.733 201.175 708.855 246.432 728.384 300.081C737.764 325.998 742.541 353.296 742.507 380.79V380.79ZM21.6632 362.587C49.082 326.633 85.6526 298.342 127.729 280.534C109.65 264.361 95.7558 244.217 87.1892 221.76C78.6226 199.303 75.6288 175.177 78.4544 151.366C81.2799 127.556 89.844 104.743 103.441 84.8051C117.039 64.8675 135.281 48.3756 156.666 36.6872C178.05 24.9989 201.966 18.4484 226.444 17.575C250.921 16.7016 275.261 21.5304 297.458 31.6637C319.656 41.7971 339.077 56.9452 354.122 75.8608C369.167 94.7765 379.406 116.919 383.995 140.465C385.183 146.58 384.414 152.905 381.796 158.578C379.177 164.251 374.836 168.997 369.362 172.168C319.274 201.167 281.153 246.424 261.622 300.074C252.242 325.991 247.465 353.288 247.499 380.783C247.499 384.759 246.699 388.696 245.144 392.37C243.589 396.044 241.31 399.381 238.436 402.193C235.563 405.004 232.152 407.234 228.398 408.756C224.644 410.277 220.621 411.06 216.558 411.059L46.3977 411.044C40.6503 411.044 35.0165 409.477 30.1281 406.519C25.2397 403.561 21.2899 399.329 18.7217 394.297C16.1534 389.265 15.0683 383.632 15.5879 378.031C16.1074 372.429 18.2112 367.08 21.6632 362.583V362.587ZM382.224 524.936C351.398 501.862 328.738 469.912 317.429 433.58C306.121 397.248 306.733 358.361 319.179 322.387C331.626 286.414 355.281 255.162 386.819 233.028C418.356 210.894 456.19 198.989 494.999 198.989C533.809 198.989 571.642 210.894 603.18 233.028C634.717 255.162 658.372 286.414 670.819 322.387C683.266 358.361 683.878 397.248 672.569 433.58C661.26 469.912 638.6 501.862 607.774 524.936C668.005 550.959 716.802 597.115 745.427 655.139C747.726 659.755 748.789 664.868 748.513 669.997C748.238 675.125 746.634 680.101 743.853 684.456C741.071 688.81 737.203 692.401 732.613 694.89C728.023 697.379 722.862 698.685 717.614 698.684H272.385C267.137 698.685 261.976 697.379 257.387 694.89C252.797 692.401 248.93 688.811 246.148 684.456C243.367 680.102 241.763 675.127 241.487 669.999C241.211 664.871 242.273 659.759 244.572 655.143C273.196 597.119 321.994 550.963 382.224 524.94V524.936Z" fill="white"/>
</g>
<defs>
<filter id="filter0_i_390_878" x="0" y="0" width="990" height="708" filterUnits="userSpaceOnUse" color-interpolation-filters="sRGB">
<feFlood flood-opacity="0" result="BackgroundImageFix"/>
<feBlend mode="normal" in="SourceGraphic" in2="BackgroundImageFix" result="shape"/>
<feColorMatrix in="SourceAlpha" type="matrix" values="0 0 0 0 0 0 0 0 0 0 0 0 0 0 0 0 0 0 127 0" result="hardAlpha"/>
<feOffset/>
<feGaussianBlur stdDeviation="50"/>
<feComposite in2="hardAlpha" operator="arithmetic" k2="-1" k3="1"/>
<feColorMatrix type="matrix" values="0 0 0 0 0 0 0 0 0 0.156863 0 0 0 0 0.392157 0 0 0 0.85 0"/>
<feBlend mode="normal" in2="shape" result="effect1_innerShadow_390_878"/>
</filter>
</defs>
</svg>
