<svg width="1284" height="1284" viewBox="0 0 1284 1284" fill="none" xmlns="http://www.w3.org/2000/svg">
<path d="M642 1284C812.269 1284 975.564 1216.36 1095.96 1095.96C1216.36 975.564 1284 812.269 1284 642C1284 471.731 1216.36 308.436 1095.96 188.037C975.564 67.6391 812.269 0 642 0C471.731 0 308.436 67.6391 188.037 188.037C67.6391 308.436 0 471.731 0 642C0 812.269 67.6391 975.564 188.037 1095.96C308.436 1216.36 471.731 1284 642 1284V1284ZM561.75 521.625C561.75 561.83 548.589 553.404 528.446 540.484C515.205 531.977 498.994 521.625 481.5 521.625C464.006 521.625 447.795 532.058 434.554 540.484C414.411 553.404 401.25 561.75 401.25 521.625C401.25 455.178 437.202 401.25 481.5 401.25C525.798 401.25 561.75 455.178 561.75 521.625ZM989.563 762.375C996.606 774.575 1000.31 788.413 1000.31 802.5C1000.31 816.587 996.606 830.425 989.563 842.625C954.352 903.644 903.691 954.312 842.677 989.532C781.663 1024.75 712.449 1043.28 642 1043.25C571.564 1043.26 502.367 1024.73 441.368 989.512C380.37 954.293 329.721 903.632 294.518 842.625C287.478 830.431 283.77 816.6 283.766 802.521C283.762 788.441 287.463 774.608 294.497 762.411C301.531 750.213 311.65 740.082 323.838 733.032C336.026 725.983 349.854 722.264 363.934 722.25H920.066C934.153 722.25 947.991 725.959 960.19 733.002C972.389 740.045 982.52 750.176 989.563 762.375ZM849.446 540.484C836.205 531.977 819.994 521.625 802.5 521.625C785.006 521.625 768.795 532.058 755.554 540.484C735.411 553.404 722.25 561.75 722.25 521.625C722.25 455.178 758.202 401.25 802.5 401.25C846.798 401.25 882.75 455.178 882.75 521.625C882.75 561.83 869.589 553.404 849.446 540.484V540.484Z" fill="#002865"/>
</svg>
