<svg width="32" height="35" viewBox="0 0 32 35" fill="none" xmlns="http://www.w3.org/2000/svg">
<g filter="url(#filter0_di_366_3393)">
<path d="M18.5385 11.1562V2.17188C18.5385 1.86107 18.4048 1.563 18.1667 1.34323C17.9287 1.12346 17.6059 1 17.2693 1C16.9326 1 16.6098 1.12346 16.3718 1.34323C16.1338 1.563 16 1.86107 16 2.17188V11.1562C16 11.3635 15.9109 11.5622 15.7522 11.7087C15.5935 11.8552 15.3783 11.9375 15.1539 11.9375C14.9295 11.9375 14.7142 11.8552 14.5556 11.7087C14.3969 11.5622 14.3077 11.3635 14.3077 11.1562V3.73438C14.3077 3.42357 14.174 3.1255 13.936 2.90573C13.698 2.68596 13.3751 2.5625 13.0385 2.5625C12.7019 2.5625 12.379 2.68596 12.141 2.90573C11.903 3.1255 11.7693 3.42357 11.7693 3.73438V13.8906C10.649 13.225 9.41359 12.7188 8.38467 12.7188C6.74144 12.7188 5.36052 13.225 5.02714 14.4625C5.00825 14.5367 4.99916 14.6128 5.00006 14.6891C5.00006 14.9234 5.11852 15.1453 5.32329 15.2859L7.54528 16.825C9.34251 18.0688 11.0365 19.7391 12.216 21.4937C12.8461 22.4478 13.441 23.4213 13.9997 24.4125C14.609 25.4703 14.9948 26 16.8462 26H21.9992C23.6154 26 24.2297 25.1672 25.3077 22.875C26.3857 20.5828 27 18.275 27 17.4062V6.07812C27 5.76732 26.8663 5.46925 26.6283 5.24948C26.3902 5.02972 26.0674 4.90625 25.7308 4.90625C25.3942 4.90625 25.0713 5.02972 24.8333 5.24948C24.5953 5.46925 24.4615 5.76732 24.4615 6.07812V11.9375C24.4615 12.1447 24.3724 12.3434 24.2137 12.4899C24.055 12.6364 23.8398 12.7188 23.6154 12.7188C23.391 12.7188 23.1758 12.6364 23.0171 12.4899C22.8584 12.3434 22.7692 12.1447 22.7692 11.9375V3.73438C22.7692 3.42357 22.6355 3.1255 22.3975 2.90573C22.1595 2.68596 21.8366 2.5625 21.5 2.5625C21.1634 2.5625 20.8406 2.68596 20.6025 2.90573C20.3645 3.1255 20.2308 3.42357 20.2308 3.73438V11.1562C20.2308 11.3635 20.1416 11.5622 19.983 11.7087C19.8243 11.8552 19.6091 11.9375 19.3846 11.9375C19.1602 11.9375 18.945 11.8552 18.7863 11.7087C18.6276 11.5622 18.5385 11.3635 18.5385 11.1562Z" fill="white"/>
</g>
<defs>
<filter id="filter0_di_366_3393" x="0" y="0" width="32" height="35" filterUnits="userSpaceOnUse" color-interpolation-filters="sRGB">
<feFlood flood-opacity="0" result="BackgroundImageFix"/>
<feColorMatrix in="SourceAlpha" type="matrix" values="0 0 0 0 0 0 0 0 0 0 0 0 0 0 0 0 0 0 127 0" result="hardAlpha"/>
<feOffset dy="4"/>
<feGaussianBlur stdDeviation="2.5"/>
<feComposite in2="hardAlpha" operator="out"/>
<feColorMatrix type="matrix" values="0 0 0 0 0 0 0 0 0 0 0 0 0 0 0 0 0 0 0.25 0"/>
<feBlend mode="normal" in2="BackgroundImageFix" result="effect1_dropShadow_366_3393"/>
<feBlend mode="normal" in="SourceGraphic" in2="effect1_dropShadow_366_3393" result="shape"/>
<feColorMatrix in="SourceAlpha" type="matrix" values="0 0 0 0 0 0 0 0 0 0 0 0 0 0 0 0 0 0 127 0" result="hardAlpha"/>
<feOffset/>
<feGaussianBlur stdDeviation="1"/>
<feComposite in2="hardAlpha" operator="arithmetic" k2="-1" k3="1"/>
<feColorMatrix type="matrix" values="0 0 0 0 0 0 0 0 0 0.156863 0 0 0 0 0.392157 0 0 0 0.65 0"/>
<feBlend mode="normal" in2="shape" result="effect2_innerShadow_366_3393"/>
</filter>
</defs>
</svg>
