<svg width="984" height="984" viewBox="0 0 984 984" fill="none" xmlns="http://www.w3.org/2000/svg">
<g filter="url(#filter0_i_390_886)">
<path d="M958.989 678.57C954.778 674.196 950.643 669.822 946.584 665.601C890.772 607.406 857.007 572.283 857.007 407.54C857.007 322.248 833.338 252.265 786.685 199.778C752.284 161.003 705.784 131.589 644.493 109.85C643.704 109.472 643 108.976 642.412 108.385C620.367 44.7445 560.04 2.12067 492.001 2.12067C423.962 2.12067 363.661 44.7445 341.615 108.319C341.027 108.889 340.332 109.369 339.56 109.741C196.531 160.5 127.021 257.886 127.021 407.474C127.021 572.283 93.3059 607.406 37.4439 665.535C33.3849 669.756 29.2498 674.043 25.0386 678.504C14.1605 689.813 7.26833 703.572 5.17775 718.153C3.08717 732.734 5.88569 747.525 13.2421 760.777C28.8946 789.208 62.2546 806.857 100.333 806.857H883.948C921.849 806.857 954.981 789.23 970.684 760.931C978.072 747.675 980.897 732.871 978.825 718.274C976.752 703.677 969.868 689.898 958.989 678.57V678.57Z" fill="white"/>
<path d="M491.997 981.879C528.656 981.853 564.623 973.275 596.084 957.053C627.545 940.832 653.327 917.573 670.695 889.742C671.513 888.408 671.917 886.915 671.868 885.407C671.819 883.898 671.318 882.427 670.414 881.135C669.51 879.843 668.234 878.774 666.71 878.033C665.185 877.292 663.465 876.903 661.714 876.905H322.331C320.579 876.899 318.855 877.285 317.327 878.025C315.799 878.765 314.519 879.833 313.613 881.125C312.706 882.418 312.203 883.891 312.152 885.401C312.102 886.911 312.506 888.407 313.325 889.742C330.691 917.569 356.469 940.827 387.925 957.048C419.381 973.269 455.343 981.849 491.997 981.879Z" fill="white"/>
</g>
<defs>
<filter id="filter0_i_390_886" x="0" y="0" width="984" height="984" filterUnits="userSpaceOnUse" color-interpolation-filters="sRGB">
<feFlood flood-opacity="0" result="BackgroundImageFix"/>
<feBlend mode="normal" in="SourceGraphic" in2="BackgroundImageFix" result="shape"/>
<feColorMatrix in="SourceAlpha" type="matrix" values="0 0 0 0 0 0 0 0 0 0 0 0 0 0 0 0 0 0 127 0" result="hardAlpha"/>
<feOffset/>
<feGaussianBlur stdDeviation="50"/>
<feComposite in2="hardAlpha" operator="arithmetic" k2="-1" k3="1"/>
<feColorMatrix type="matrix" values="0 0 0 0 0 0 0 0 0 0.156863 0 0 0 0 0.392157 0 0 0 0.85 0"/>
<feBlend mode="normal" in2="shape" result="effect1_innerShadow_390_886"/>
</filter>
</defs>
</svg>
