<svg width="865" height="864" viewBox="0 0 865 864" fill="none" xmlns="http://www.w3.org/2000/svg">
<path fill-rule="evenodd" clip-rule="evenodd" d="M538.313 2.12632C546.049 -0.530332 554.421 -0.701803 562.259 1.63587C570.097 3.97355 577.01 8.70355 582.03 15.1648L856.732 368.617C862.09 375.511 865 383.996 865 392.73C865 401.465 862.09 409.95 856.732 416.844L582.03 770.296C577.008 776.751 570.097 781.474 562.262 783.808C554.427 786.142 546.06 785.969 538.328 783.313C530.596 780.657 523.886 775.652 519.135 768.995C514.383 762.339 511.828 754.363 511.824 746.183V589.486C300.736 593.884 199.332 633.981 148.394 677.574C99.9682 719.006 91.0993 767.743 81.8771 818.798L79.4833 831.954C77.7223 841.368 72.5844 849.813 65.0364 855.701C57.4883 861.589 48.0504 864.514 38.4981 863.926C28.9459 863.337 19.9379 859.275 13.1688 852.505C6.39975 845.734 2.33624 836.722 1.74279 827.163C-5.00702 719.242 5.1177 562.859 81.2885 432.042C155.222 305.074 288.335 207.443 511.824 197.232V39.2781C511.822 31.0957 514.374 23.1169 519.123 16.4562C523.872 9.79549 530.581 4.78561 538.313 2.12632V2.12632Z" fill="#002865"/>
</svg>
