<svg width="1344" height="1319" viewBox="0 0 1344 1319" fill="none" xmlns="http://www.w3.org/2000/svg">
<path d="M1330.29 639.533L35.8502 2.53237C30.5889 -0.0496577 24.5538 -0.657188 18.8283 0.709766C5.67497 3.89932 -2.52651 16.9613 0.723132 30.0233L134.113 564.958C136.125 573.008 142.16 579.539 150.206 582.121L378.764 659.126L150.361 736.131C142.315 738.865 136.279 745.244 134.423 753.294L0.723132 1288.99C-0.66957 1294.61 -0.0505845 1300.53 2.58007 1305.54C8.61512 1317.54 23.4706 1322.4 35.8502 1316.48L1330.29 683.123C1335.09 680.845 1338.96 676.896 1341.43 672.34C1347.47 660.189 1342.51 645.608 1330.29 639.533ZM153.301 1136.8L231.138 824.527L687.944 670.669C691.503 669.454 694.443 666.72 695.681 663.075C697.848 656.696 694.443 649.861 687.944 647.583L231.138 493.876L153.611 182.818L1125.41 661.1L153.301 1136.8Z" fill="#002865"/>
</svg>
