<svg width="34" height="34" viewBox="0 0 34 34" fill="none" xmlns="http://www.w3.org/2000/svg">
<g filter="url(#filter0_di_366_3163)">
<path d="M17.0953 14.6906C18.0815 14.6906 18.881 13.8911 18.881 12.9049C18.881 11.9186 18.0815 11.1191 17.0953 11.1191C16.1091 11.1191 15.3096 11.9186 15.3096 12.9049C15.3096 13.8911 16.1091 14.6906 17.0953 14.6906Z" fill="white"/>
<path d="M28.8691 10.9048L27.9286 7.90476C27.8271 7.55804 27.6567 7.23532 27.4278 6.95586C27.1988 6.67639 26.9159 6.44591 26.5959 6.27814C26.276 6.11038 25.9255 6.00878 25.5654 5.9794C25.2053 5.95002 24.843 5.99347 24.5001 6.10714L24.0953 6.2381C23.7782 6.34291 23.4405 6.36951 23.1109 6.31561C22.7813 6.26172 22.4696 6.12893 22.2024 5.92857L22.0715 5.83333C21.8108 5.63378 21.6006 5.37574 21.4579 5.08004C21.3152 4.78433 21.244 4.45923 21.2501 4.13095V3.79762C21.2558 3.05003 20.9647 2.3307 20.4405 1.79762C20.1912 1.54578 19.8946 1.34567 19.5677 1.20879C19.2408 1.07191 18.8901 1.00095 18.5358 1H15.5001C14.7717 1.00941 14.0765 1.30618 13.5659 1.82569C13.0554 2.34521 12.7707 3.04539 12.7739 3.77381V4.05952C12.7727 4.40509 12.694 4.74599 12.5436 5.0571C12.3932 5.36822 12.1749 5.64161 11.9048 5.85714L11.7501 5.97619C11.4517 6.20193 11.1026 6.35138 10.7333 6.41154C10.364 6.47171 9.98563 6.44078 9.63101 6.32143C9.30531 6.20872 8.96013 6.16327 8.61636 6.18782C8.27259 6.21238 7.93738 6.30643 7.63101 6.46429C7.31202 6.6226 7.02903 6.84487 6.79965 7.11727C6.57027 7.38966 6.3994 7.70635 6.29767 8.04762L5.32148 11.1429C5.0951 11.8407 5.15316 12.5997 5.48304 13.255C5.81292 13.9103 6.388 14.409 7.08339 14.6429H7.27386C7.59465 14.7631 7.88256 14.9572 8.11423 15.2096C8.3459 15.4619 8.51479 15.7654 8.6072 16.0952L8.67862 16.2857C8.81133 16.6502 8.85571 17.0409 8.80812 17.4258C8.76052 17.8107 8.6223 18.1789 8.40481 18.5C7.9646 19.0995 7.77891 19.8486 7.88815 20.5843C7.9974 21.32 8.39273 21.9828 8.98815 22.4286L11.4524 24.2976C11.919 24.6369 12.4827 24.8164 13.0596 24.8095C13.214 24.8246 13.3695 24.8246 13.5239 24.8095C13.8811 24.7404 14.2206 24.5991 14.5214 24.3945C14.8223 24.1898 15.0783 23.9259 15.2739 23.619L15.5477 23.2262C15.7397 22.9507 15.9939 22.7242 16.2896 22.5649C16.5853 22.4057 16.9143 22.3182 17.2501 22.3095C17.6019 22.3009 17.9502 22.3815 18.2625 22.5439C18.5748 22.7062 18.8408 22.9451 19.0358 23.2381L19.1786 23.4405C19.3816 23.7426 19.6443 23.9999 19.9504 24.1966C20.2566 24.3934 20.5998 24.5254 20.9589 24.5845C21.318 24.6436 21.6854 24.6285 22.0385 24.5403C22.3916 24.4521 22.7229 24.2925 23.012 24.0714L25.4286 22.2619C26 21.8181 26.38 21.1726 26.4907 20.4576C26.6014 19.7427 26.4343 19.0124 26.0239 18.4167L25.7143 17.9643C25.5282 17.6767 25.4063 17.3523 25.357 17.0133C25.3077 16.6743 25.3321 16.3287 25.4286 16C25.527 15.6481 25.7095 15.3255 25.9605 15.06C26.2115 14.7945 26.5233 14.5942 26.8691 14.4762L27.1072 14.3929C27.7961 14.1538 28.3651 13.6562 28.6939 13.0053C29.0227 12.3544 29.0855 11.6011 28.8691 10.9048ZM17.0953 17.0714C16.2712 17.0714 15.4656 16.8271 14.7804 16.3692C14.0952 15.9114 13.5612 15.2606 13.2458 14.4993C12.9304 13.7379 12.8479 12.9001 13.0087 12.0919C13.1695 11.2836 13.5663 10.5412 14.149 9.95848C14.7317 9.37576 15.4742 8.97893 16.2824 8.81816C17.0907 8.65738 17.9284 8.7399 18.6898 9.05526C19.4512 9.37063 20.1019 9.90468 20.5597 10.5899C21.0176 11.2751 21.262 12.0807 21.262 12.9048C21.262 14.0098 20.823 15.0696 20.0416 15.851C19.2602 16.6324 18.2004 17.0714 17.0953 17.0714Z" fill="white"/>
</g>
<defs>
<filter id="filter0_di_366_3163" x="-1" y="0" width="35" height="35" filterUnits="userSpaceOnUse" color-interpolation-filters="sRGB">
<feFlood flood-opacity="0" result="BackgroundImageFix"/>
<feColorMatrix in="SourceAlpha" type="matrix" values="0 0 0 0 0 0 0 0 0 0 0 0 0 0 0 0 0 0 127 0" result="hardAlpha"/>
<feOffset dy="4"/>
<feGaussianBlur stdDeviation="2.5"/>
<feComposite in2="hardAlpha" operator="out"/>
<feColorMatrix type="matrix" values="0 0 0 0 0 0 0 0 0 0 0 0 0 0 0 0 0 0 0.25 0"/>
<feBlend mode="normal" in2="BackgroundImageFix" result="effect1_dropShadow_366_3163"/>
<feBlend mode="normal" in="SourceGraphic" in2="effect1_dropShadow_366_3163" result="shape"/>
<feColorMatrix in="SourceAlpha" type="matrix" values="0 0 0 0 0 0 0 0 0 0 0 0 0 0 0 0 0 0 127 0" result="hardAlpha"/>
<feOffset/>
<feGaussianBlur stdDeviation="1"/>
<feComposite in2="hardAlpha" operator="arithmetic" k2="-1" k3="1"/>
<feColorMatrix type="matrix" values="0 0 0 0 0 0 0 0 0 0.156863 0 0 0 0 0.392157 0 0 0 0.65 0"/>
<feBlend mode="normal" in2="shape" result="effect2_innerShadow_366_3163"/>
</filter>
</defs>
</svg>
