<svg width="15" height="15" viewBox="0 0 15 15" fill="none" xmlns="http://www.w3.org/2000/svg">
<g clip-path="url(#clip0_364_2689)">
<path fill-rule="evenodd" clip-rule="evenodd" d="M10.2759 11.5926C10.5433 11.3076 10.7145 10.9459 10.7653 10.5585L13.6809 11.8541C13.8237 11.9177 13.98 11.9446 14.1358 11.9324C14.2915 11.9202 14.4418 11.8693 14.5728 11.7842C14.7039 11.6992 14.8116 11.5827 14.8862 11.4455C14.9608 11.3082 14.9999 11.1544 15 10.9982V4.00258C14.9999 3.84646 14.9607 3.69285 14.8862 3.55569C14.8116 3.41852 14.704 3.30215 14.5731 3.21713C14.4421 3.1321 14.292 3.08112 14.1364 3.06881C13.9808 3.05651 13.8245 3.08326 13.6819 3.14664L10.7653 4.44227C10.7057 3.99141 10.4843 3.57757 10.1423 3.27782C9.80032 2.97807 9.36102 2.81284 8.90625 2.81289H4.005L10.2769 11.5926H10.2759ZM0.794062 3.15508C0.548646 3.32833 0.348424 3.55798 0.210242 3.82472C0.0720592 4.09146 -4.31385e-05 4.38748 1.93631e-08 4.68789V10.3129C1.93631e-08 10.8102 0.197544 11.2871 0.549175 11.6387C0.900806 11.9903 1.37772 12.1879 1.875 12.1879H7.245L0.794062 3.15602V3.15508ZM9.93094 14.3348L0.555937 1.20977L1.31906 0.666016L10.6941 13.791L9.93094 14.3348Z" fill="#680000"/>
</g>
<defs>
<clipPath id="clip0_364_2689">
<rect width="15" height="15" fill="white"/>
</clipPath>
</defs>
</svg>
