<svg width="15" height="9" viewBox="0 0 15 9" fill="none" xmlns="http://www.w3.org/2000/svg">
<g clip-path="url(#clip0_364_2706)">
<path fill-rule="evenodd" clip-rule="evenodd" d="M0 2.1C0 1.67565 0.197544 1.26869 0.549175 0.968629C0.900806 0.668571 1.37772 0.5 1.875 0.5H8.90625C9.36102 0.499954 9.80032 0.640954 10.1423 0.896742C10.4843 1.15253 10.7057 1.50567 10.7653 1.8904L13.6809 0.7848C13.8237 0.730537 13.98 0.707571 14.1358 0.717988C14.2915 0.728406 14.4418 0.771877 14.5728 0.84445C14.7039 0.917023 14.8116 1.0164 14.8862 1.13354C14.9608 1.25068 14.9999 1.38188 15 1.5152V7.4848C14.9999 7.61802 14.9607 7.7491 14.8862 7.86615C14.8116 7.98319 14.704 8.0825 14.5731 8.15505C14.4421 8.22761 14.292 8.27111 14.1364 8.28161C13.9808 8.29211 13.8245 8.26929 13.6819 8.2152L10.7653 7.1096C10.7057 7.49433 10.4843 7.84747 10.1423 8.10326C9.80032 8.35905 9.36102 8.50005 8.90625 8.5H1.875C1.37772 8.5 0.900806 8.33143 0.549175 8.03137C0.197544 7.73131 0 7.32435 0 6.9V2.1Z" fill="#1CDE24"/>
</g>
<defs>
<clipPath id="clip0_364_2706">
<rect width="15" height="8" fill="white" transform="translate(0 0.5)"/>
</clipPath>
</defs>
</svg>
